<svg width="66" height="66" viewBox="0 0 66 66" fill="none" xmlns="http://www.w3.org/2000/svg">
<g clip-path="url(#clip0_265_2219)">
<path d="M57.75 0.5H8.25C5.96991 0.5 4.125 2.31695 4.125 4.5625V61.4375C4.125 63.683 5.96991 65.5 8.25 65.5H57.75C60.0301 65.5 61.875 63.683 61.875 61.4375V4.5625C61.875 2.31695 60.0301 0.5 57.75 0.5ZM59.8125 61.4375C59.8125 62.5588 58.8885 63.4688 57.75 63.4688H8.25C7.1115 63.4688 6.1875 62.5588 6.1875 61.4375V4.5625C6.1875 3.44125 7.1115 2.53125 8.25 2.53125H57.75C58.8885 2.53125 59.8125 3.44125 59.8125 4.5625V61.4375Z" fill="#231F20"/>
<path d="M50.5312 25.8906H15.4688C14.8985 25.8906 14.4375 26.3446 14.4375 26.9062C14.4375 27.4679 14.8985 27.9219 15.4688 27.9219H50.5312C51.1015 27.9219 51.5625 27.4679 51.5625 26.9062C51.5625 26.3446 51.1015 25.8906 50.5312 25.8906Z" fill="#231F20"/>
<path d="M50.5312 19.7969H15.4688C14.8985 19.7969 14.4375 20.2509 14.4375 20.8125C14.4375 21.3741 14.8985 21.8281 15.4688 21.8281H50.5312C51.1015 21.8281 51.5625 21.3741 51.5625 20.8125C51.5625 20.2509 51.1015 19.7969 50.5312 19.7969Z" fill="#231F20"/>
<path d="M50.5312 38.0781H15.4688C14.8985 38.0781 14.4375 38.5321 14.4375 39.0938C14.4375 39.6554 14.8985 40.1094 15.4688 40.1094H50.5312C51.1015 40.1094 51.5625 39.6554 51.5625 39.0938C51.5625 38.5321 51.1015 38.0781 50.5312 38.0781Z" fill="#231F20"/>
<path d="M50.5312 44.1719H15.4688C14.8985 44.1719 14.4375 44.6259 14.4375 45.1875C14.4375 45.7491 14.8985 46.2031 15.4688 46.2031H50.5312C51.1015 46.2031 51.5625 45.7491 51.5625 45.1875C51.5625 44.6259 51.1015 44.1719 50.5312 44.1719Z" fill="#231F20"/>
<path d="M50.5312 50.2656H15.4688C14.8985 50.2656 14.4375 50.7196 14.4375 51.2812C14.4375 51.8429 14.8985 52.2969 15.4688 52.2969H50.5312C51.1015 52.2969 51.5625 51.8429 51.5625 51.2812C51.5625 50.7196 51.1015 50.2656 50.5312 50.2656Z" fill="#231F20"/>
<path d="M50.5312 31.9844H15.4688C14.8985 31.9844 14.4375 32.4384 14.4375 33C14.4375 33.5616 14.8985 34.0156 15.4688 34.0156H50.5312C51.1015 34.0156 51.5625 33.5616 51.5625 33C51.5625 32.4384 51.1015 31.9844 50.5312 31.9844Z" fill="#231F20"/>
<path d="M15.4688 15.7344H31.9688C32.539 15.7344 33 15.2804 33 14.7188C33 14.1571 32.539 13.7031 31.9688 13.7031H15.4688C14.8985 13.7031 14.4375 14.1571 14.4375 14.7188C14.4375 15.2804 14.8985 15.7344 15.4688 15.7344Z" fill="#231F20"/>
</g>
<defs>
<clipPath id="clip0_265_2219">
<rect width="66" height="65" fill="white" transform="translate(0 0.5)"/>
</clipPath>
</defs>
</svg>
