<svg width="17" height="17" viewBox="0 0 17 17" fill="none" xmlns="http://www.w3.org/2000/svg">
<g clip-path="url(#clip0_421_181)">
<path fill-rule="evenodd" clip-rule="evenodd" d="M7.15062 12.989C3.80906 12.989 1.10023 10.3275 1.10023 7.03906C1.10023 3.75063 3.80906 1.08377 7.15062 1.08377C10.4922 1.08377 13.2016 3.75063 13.2016 7.03906C13.2016 10.3275 10.4922 12.989 7.15062 12.989ZM16.8342 16.0703L12.4466 11.7512C13.5952 10.5028 14.3013 8.85594 14.3013 7.03906C14.3013 3.15031 11.0999 0 7.15062 0C3.20131 0 0 3.15031 0 7.03906C0 10.9225 3.20131 14.0728 7.15062 14.0728C8.85699 14.0728 10.4221 13.4831 11.6514 12.5003L16.0565 16.8353C16.2717 17.0478 16.6196 17.0478 16.8342 16.8353C17.0494 16.6281 17.0494 16.2828 16.8342 16.0703Z" fill="black"/>
</g>
<defs>
<clipPath id="clip0_421_181">
<rect width="17" height="17" fill="white"/>
</clipPath>
</defs>
</svg>
