<svg width="232" height="47" viewBox="0 0 232 47" fill="none" xmlns="http://www.w3.org/2000/svg">
<g clip-path="url(#clip0_286_163)">
<path d="M7.008 11.75L13.4994 5.27661L16.064 7.83295L4.38857 19.4202C4.33371 19.0396 4.33371 18.604 4.33371 18.2234C4.33371 15.776 5.26171 13.4901 7.008 11.75ZM21.1371 13.1646L8.26286 25.9474L7.22628 24.9146L7.17257 24.8596C7.17257 24.8596 7.06286 24.7507 6.95428 24.6968C6.52694 24.264 6.143 23.7902 5.808 23.2822L18.6286 10.5005L19.9383 11.805C20.4297 12.1868 20.8103 12.6762 21.1383 13.1657L21.1371 13.1646ZM19.9909 24.6968L13.4994 31.1702L10.936 28.6138L22.5554 17.0266C22.9371 19.7469 22.064 22.5749 19.9909 24.6968ZM4.608 27.5798L13.4994 36.4468L22.5554 27.417L23.1006 26.8725C27.4651 22.0315 27.5189 14.633 23.2103 9.73702L13.4994 0L4.33486 9.13863C3.14141 10.3293 2.1945 11.7449 1.54861 13.304C0.90273 14.8631 0.570631 16.535 0.571428 18.2234C0.570631 19.9118 0.90273 21.5836 1.54861 23.1428C2.1945 24.7019 3.14141 26.1175 4.33486 27.3081C4.38971 27.417 4.552 27.526 4.608 27.5798Z" fill="white"/>
<path d="M26.1554 26.4381C25.6642 28.5424 24.6511 30.4883 23.2103 32.0953L22.664 32.6386L13.6091 41.7234L4.71771 32.8025C4.63788 32.7168 4.54583 32.6434 4.44457 32.5847C2.74719 30.8995 1.55636 28.7696 1.008 26.4381H0.899428C0.789713 27.1992 0.681142 27.9604 0.681142 28.7227C0.680495 30.4109 1.01267 32.0825 1.65855 33.6415C2.30443 35.2004 3.25126 36.6158 4.44457 37.8063C4.49943 37.8613 4.66286 38.0241 4.71771 38.0241L13.6091 46.8911L22.664 37.8614L23.2103 37.3168C25.992 34.271 26.9737 30.1912 26.3189 26.383H26.1554V26.4381ZM41.32 6.4195H40.6651V40.5266H41.32V6.4195ZM63.8503 8.05074V20.2364H60.8491V11.2066H55.5577V20.2364H52.5577V8.05074H63.8503ZM79.0137 11.5322C79.3417 12.3484 79.5051 13.1646 79.5051 14.1435C79.5051 15.0686 79.3417 15.9387 79.0137 16.7549C78.6869 17.5711 78.1954 18.2234 77.6503 18.7679C77.1051 19.3113 76.4503 19.8007 75.6869 20.0724C74.9467 20.3958 74.1479 20.5624 73.3406 20.5619C72.4137 20.5619 71.6491 20.3991 71.0491 20.1263C70.3954 19.8007 69.9589 19.4202 69.7954 18.9845V25.2952H66.7943V8.05074H69.7406V9.35757C69.9577 8.92196 70.3954 8.54023 71.0491 8.21467C71.704 7.88796 72.4674 7.77906 73.3954 7.77906C74.2137 7.77906 75.032 7.94184 75.7406 8.21467C76.4726 8.51944 77.1395 8.96229 77.7051 9.5192C78.1966 10.0637 78.6869 10.716 79.0137 11.5322ZM76.232 15.4492C76.3954 15.0686 76.5051 14.633 76.5051 14.1435C76.5051 13.6541 76.3954 13.2184 76.2309 12.8379C76.0686 12.4573 75.7954 12.1306 75.5223 11.8039C75.1998 11.524 74.8308 11.3032 74.432 11.1516C73.9954 10.9888 73.504 10.9338 73.0137 10.9338C72.2491 10.9338 71.5954 11.0977 70.9954 11.3694C70.3954 11.6961 70.0126 12.0767 69.8491 12.5112V15.7759C70.0126 16.2115 70.4491 16.591 70.9954 16.9177C71.5954 17.2444 72.2491 17.3533 73.0137 17.3533C73.5589 17.3533 73.9954 17.2983 74.4309 17.1355C74.8686 16.9727 75.2503 16.7549 75.5223 16.4821C75.7954 16.1565 76.0697 15.8298 76.232 15.4492ZM84.6343 8.05074V15.3403L90.1429 8.05074H93.1989V20.2364H90.1977V12.8929L84.6891 20.2364H81.6343V8.05074H84.6343ZM108.2 14.1435C108.2 15.0686 108.035 15.9387 107.654 16.6999C107.329 17.464 106.846 18.1501 106.237 18.7129C105.635 19.2574 104.981 19.7469 104.162 20.0724C103.386 20.4012 102.551 20.5678 101.709 20.5619C100.835 20.5619 100.017 20.3991 99.2537 20.0724C98.4891 19.7469 97.7794 19.3113 97.1806 18.7129C96.571 18.1502 96.0876 17.4641 95.7623 16.6999C95.4088 15.8939 95.223 15.024 95.216 14.1435C95.216 13.2184 95.3806 12.4023 95.7623 11.5872C96.0891 10.771 96.5806 10.1176 97.1794 9.5192C97.7684 8.92545 98.4751 8.46228 99.2537 8.15964C100.03 7.83069 100.866 7.66413 101.709 7.67016C102.581 7.67016 103.4 7.83294 104.162 8.15964C104.927 8.48635 105.637 8.92081 106.235 9.5192C106.835 10.1176 107.327 10.771 107.654 11.5872C108.035 12.3484 108.2 13.2184 108.2 14.1435ZM98.5989 12.8379C98.4193 13.2496 98.3264 13.6941 98.3257 14.1435C98.3257 14.633 98.4354 15.0686 98.5989 15.4492C98.7623 15.8298 99.0354 16.1565 99.3074 16.4821C99.6354 16.7549 99.9623 16.9727 100.399 17.1355C100.835 17.2983 101.272 17.3533 101.762 17.3533C102.254 17.3533 102.69 17.2983 103.072 17.1355C103.509 16.9716 103.835 16.7549 104.162 16.4821C104.49 16.2104 104.709 15.8837 104.871 15.4492C105.035 15.0686 105.145 14.633 105.145 14.1424C105.145 13.7066 105.058 13.2752 104.889 12.8736C104.72 12.472 104.473 12.1083 104.162 11.8039C103.84 11.5236 103.471 11.3024 103.072 11.1504C102.652 10.9993 102.208 10.9259 101.762 10.9338C101.271 10.9338 100.835 10.9888 100.399 11.1516C99.9996 11.3034 99.6301 11.5246 99.3074 11.805C99.0354 12.0767 98.7623 12.4023 98.5989 12.8379ZM122.545 11.5322C122.872 12.3484 123.037 13.1646 123.037 14.1435C123.037 15.0686 122.872 15.9387 122.545 16.7549C122.218 17.5711 121.727 18.2234 121.182 18.7679C120.635 19.3113 119.982 19.8007 119.217 20.0724C118.477 20.3957 117.679 20.5624 116.872 20.5619C115.944 20.5619 115.181 20.3991 114.581 20.1263C113.926 19.8007 113.49 19.4202 113.326 18.9845V25.2952H110.326V8.05074H113.272V9.35757C113.489 8.92196 113.926 8.54023 114.581 8.21467C115.235 7.88796 115.999 7.77906 116.927 7.77906C117.745 7.77906 118.563 7.94184 119.272 8.21467C120.004 8.51949 120.67 8.96235 121.235 9.5192C121.782 10.0637 122.218 10.716 122.545 11.5322ZM119.763 15.4492C119.942 15.0372 120.034 14.5928 120.034 14.1435C120.034 13.6943 119.942 13.2498 119.763 12.8379C119.6 12.4573 119.327 12.1306 119.054 11.8039C118.731 11.524 118.362 11.3032 117.963 11.1516C117.527 10.9888 117.035 10.9338 116.545 10.9338C115.781 10.9338 115.127 11.0977 114.526 11.3694C113.926 11.6961 113.544 12.0767 113.381 12.5112V15.7759C113.544 16.2115 113.981 16.591 114.526 16.9177C115.127 17.2444 115.781 17.3533 116.545 17.3533C117.09 17.3533 117.527 17.2983 117.963 17.1355C118.399 16.9727 118.782 16.7549 119.054 16.4821C119.327 16.2104 119.6 15.8298 119.763 15.4492ZM128.165 8.05074V15.3403L133.729 8.05074H136.729V20.2364H133.783V12.8929L128.219 20.2364H125.218V8.05074H128.165ZM149.275 11.2066H145.512V20.2364H142.512V11.2066H138.747V8.05074H149.275V11.2066ZM157.295 17.5161C158.058 17.5161 158.768 17.3533 159.477 17.0805C160.086 16.8565 160.63 16.4824 161.058 15.9926L161.986 18.3311C161.605 18.9845 161.005 19.474 160.186 19.9096C159.368 20.3453 158.386 20.5631 157.24 20.5631C156.35 20.56 155.465 20.4129 154.622 20.1274C153.803 19.8007 153.149 19.4202 152.549 18.8206C151.949 18.2773 151.512 17.625 151.185 16.8088C150.85 15.9608 150.683 15.0556 150.694 14.1435C150.694 13.2723 150.858 12.4573 151.13 11.6961C151.409 10.9308 151.835 10.2281 152.385 9.62811C152.931 9.02046 153.6 8.53796 154.349 8.21352C155.176 7.85577 156.067 7.67088 156.968 7.67016C157.895 7.67016 158.713 7.83294 159.422 8.21352C160.131 8.59525 160.786 9.02972 161.277 9.62811C161.768 10.2265 162.205 10.8799 162.477 11.6961C162.763 12.4803 162.91 13.3085 162.913 14.1435V14.6869C162.913 14.9047 162.859 15.0686 162.859 15.1775H153.803C153.967 15.9926 154.349 16.591 155.003 16.9177C155.603 17.3533 156.367 17.5161 157.295 17.5161ZM159.805 12.729C159.695 12.0755 159.368 11.5872 158.877 11.2605C158.331 10.9338 157.677 10.771 156.968 10.771C156.203 10.771 155.55 10.9338 154.949 11.2605C154.349 11.5872 154.022 12.0767 153.858 12.729H159.805ZM174.806 11.2066H171.042V20.2364H168.042V11.2066H164.223V8.05074H174.806V11.2066ZM180.696 10.5532C180.424 10.5532 180.151 10.6071 179.878 10.716C179.606 10.8249 179.387 10.9338 179.169 11.0977C178.951 11.2605 178.787 11.4233 178.623 11.5872C178.459 11.805 178.296 11.9678 178.187 12.1856L177.096 10.3354C177.205 10.0087 177.369 9.62811 177.587 9.35642C177.803 9.03197 178.081 8.75438 178.406 8.54023C178.733 8.32242 179.114 8.10462 179.551 7.99686C179.987 7.83294 180.424 7.77906 180.914 7.77906C181.569 7.77906 182.114 7.88796 182.606 8.05074C183.096 8.26855 183.479 8.48635 183.861 8.86694C184.187 9.19364 184.461 9.62811 184.624 10.0637C184.787 10.4993 184.897 10.9888 184.897 11.5322C184.897 11.9678 184.842 12.4034 184.733 12.729C184.624 13.1095 184.461 13.4363 184.297 13.818C184.079 14.1435 183.861 14.5241 183.533 14.9047C183.261 15.2853 182.879 15.667 182.496 16.1015L181.242 17.4622H185.061V20.2364H177.205V18.0606L180.696 14.2524C180.969 13.9808 181.187 13.763 181.351 13.5452C181.514 13.3274 181.678 13.1646 181.787 12.9468C181.9 12.7767 181.991 12.5939 182.061 12.4023C182.127 12.2096 182.164 12.0078 182.169 11.8039C182.169 11.4233 182.061 11.1516 181.787 10.8799C181.514 10.6621 181.133 10.5532 180.696 10.5532ZM190.297 8.21467C191.074 7.88565 191.909 7.71909 192.752 7.72518C193.624 7.72518 194.442 7.88796 195.207 8.21467C195.965 8.53196 196.665 8.97318 197.279 9.52035C197.879 10.0637 198.315 10.7699 198.697 11.5322C199.025 12.2945 199.189 13.1646 199.189 14.0885C199.189 15.0136 199.025 15.8848 198.697 16.6999C198.372 17.4641 197.888 18.1502 197.279 18.7129C196.674 19.2722 195.972 19.7151 195.207 20.0197C194.429 20.343 193.594 20.5089 192.752 20.508C191.909 20.5141 191.074 20.3476 190.297 20.0185C189.539 19.7012 188.838 19.26 188.224 18.7129C187.624 18.1695 187.187 17.4622 186.806 16.6999C186.479 15.9387 186.314 15.0686 186.314 14.0897C186.314 13.1646 186.479 12.2945 186.806 11.5333C187.131 10.7691 187.614 10.0829 188.224 9.52035C188.829 8.96099 189.532 8.51916 190.297 8.21467ZM192.752 17.7339C193.297 17.7339 193.789 17.625 194.224 17.4622C194.661 17.2983 195.097 17.0266 195.425 16.6999C195.752 16.3743 196.025 15.9926 196.243 15.5581C196.461 15.1225 196.515 14.633 196.515 14.0897C196.515 13.5452 196.407 13.0557 196.243 12.6201C196.025 12.1844 195.807 11.805 195.425 11.4783C195.097 11.1516 194.661 10.9338 194.224 10.716C193.752 10.5422 193.255 10.4504 192.752 10.4443C192.206 10.4443 191.715 10.5532 191.279 10.716C190.831 10.8842 190.422 11.1438 190.079 11.4783C189.746 11.8118 189.47 12.1974 189.261 12.6201C189.042 13.0557 188.987 13.5452 188.987 14.0897C188.987 14.633 189.097 15.1225 189.261 15.557C189.479 15.9926 189.697 16.3743 190.079 16.6999C190.406 17.0266 190.787 17.2444 191.279 17.4622C191.715 17.625 192.206 17.7339 192.752 17.7339ZM203.499 17.7339C204.045 17.7339 204.481 17.625 204.809 17.3533C204.966 17.232 205.093 17.0751 205.178 16.8953C205.263 16.7156 205.305 16.5182 205.299 16.3193C205.302 16.142 205.264 15.9666 205.188 15.8064C205.113 15.6462 205.001 15.5056 204.863 15.3954C204.536 15.1775 204.154 15.0686 203.663 15.0686C203.336 15.0686 203.009 15.1225 202.736 15.1775C202.531 15.21 202.341 15.3048 202.191 15.4492L201.754 13.5463L203.881 10.9338H200.499V8.15964H207.318V10.1726L205.246 12.729C205.518 12.784 205.846 12.8929 206.173 13.0557C206.499 13.2184 206.773 13.4363 207.046 13.763C207.318 14.0346 207.536 14.4164 207.699 14.8508C207.864 15.2864 207.973 15.8298 207.973 16.4282C207.973 17.0266 207.864 17.5711 207.646 18.0606C207.427 18.5501 207.154 19.0396 206.718 19.4202C206.311 19.8206 205.829 20.1351 205.299 20.3453C204.754 20.5631 204.154 20.6708 203.445 20.6708C202.985 20.677 202.527 20.6222 202.081 20.508C201.645 20.3991 201.318 20.2364 200.99 20.0724C200.663 19.9096 200.445 19.6918 200.226 19.474C200.008 19.2562 199.899 19.0384 199.79 18.7679L200.39 16.5371C200.728 16.9337 201.135 17.2654 201.591 17.5161C202.136 17.625 202.736 17.7339 203.499 17.7339ZM213.154 8.21467C213.931 7.88565 214.766 7.71909 215.609 7.72518C216.481 7.72518 217.299 7.88796 218.064 8.21467C218.822 8.53196 219.522 8.97318 220.136 9.52035C220.737 10.0637 221.173 10.7699 221.554 11.5322C221.882 12.2945 222.046 13.1646 222.046 14.0885C222.046 15.0136 221.882 15.8848 221.554 16.6999C221.229 17.4643 220.746 18.1506 220.136 18.7129C219.531 19.2722 218.829 19.7151 218.064 20.0197C217.287 20.3481 216.452 20.5142 215.609 20.508C214.766 20.5141 213.931 20.3476 213.154 20.0185C212.396 19.7012 211.696 19.26 211.081 18.7129C210.481 18.1695 210.045 17.4622 209.663 16.6999C209.336 15.9387 209.171 15.0686 209.171 14.0897C209.171 13.1646 209.336 12.2945 209.663 11.5333C209.988 10.7691 210.472 10.0829 211.081 9.52035C211.695 8.97275 212.396 8.53229 213.154 8.21467ZM215.663 17.7339C216.209 17.7339 216.699 17.625 217.136 17.4622C217.584 17.294 217.993 17.0344 218.336 16.6999C218.664 16.3743 218.936 15.9926 219.154 15.5581C219.373 15.1225 219.427 14.633 219.427 14.0897C219.427 13.5452 219.318 13.0557 219.154 12.6201C218.936 12.1844 218.718 11.805 218.336 11.4783C218.009 11.1516 217.573 10.9338 217.136 10.716C216.664 10.5422 216.166 10.4504 215.663 10.4443C215.16 10.4454 214.661 10.5374 214.191 10.716C213.743 10.8842 213.334 11.1438 212.991 11.4783C212.658 11.8118 212.382 12.1974 212.173 12.6201C211.954 13.0557 211.899 13.5452 211.899 14.0897C211.899 14.633 212.008 15.1225 212.173 15.557C212.391 15.9926 212.608 16.3743 212.991 16.6999C213.318 17.0266 213.699 17.2444 214.191 17.4622C214.661 17.6408 215.16 17.7328 215.663 17.7339ZM228.593 5.98389H226.138L223.302 10.8249H225.757L228.593 5.98389Z" fill="white"/>
<path d="M226.138 5.98389H228.593L231.43 10.8249H228.975L226.138 5.98389ZM61.2309 32.4758V36.1212L64.0126 32.4758H65.4857V38.5136H64.0126V34.8683L61.2857 38.5136H59.8114V32.4758H61.2309ZM67.0126 36.9363C67.1223 36.7184 67.2857 36.5006 67.3943 36.229C67.504 35.9573 67.6126 35.6856 67.7223 35.3589C67.8309 35.0322 67.8857 34.7055 67.9394 34.3249C67.9943 33.9443 68.0491 33.5637 68.0491 33.1281V32.5297H72.4137V36.9913H73.2869V40.201H71.8126V38.5686H67.8857V40.1999H66.4126V36.9901H67.0126V36.9363ZM70.8869 36.9363V34.0532H69.3589C69.304 34.7066 69.1954 35.305 69.0309 35.7395C68.8674 36.1751 68.7589 36.6107 68.5954 36.8824H70.8857L70.8869 36.9363ZM77.16 37.1541C77.5417 37.1541 77.9234 37.1002 78.2514 36.9363C78.5783 36.7735 78.8514 36.6095 79.0149 36.3929L79.4514 37.5346C79.288 37.8614 78.96 38.133 78.5783 38.2958C78.1417 38.5136 77.7063 38.6225 77.1051 38.6225C76.6697 38.6225 76.2331 38.5686 75.7966 38.4047C75.4149 38.2419 75.0331 38.0241 74.76 37.7524C74.481 37.4714 74.2587 37.139 74.1051 36.7735C73.9255 36.3613 73.8325 35.9165 73.832 35.4666C73.832 35.0322 73.8869 34.6527 74.0503 34.271C74.2149 33.8904 74.3783 33.5637 74.6514 33.237C74.9234 32.9653 75.2514 32.6936 75.6331 32.5297C76.0464 32.3509 76.4916 32.2584 76.9417 32.258C77.3783 32.258 77.8149 32.3669 78.1417 32.5297C78.5234 32.6936 78.7966 32.9653 79.0697 33.237C79.3417 33.5098 79.5063 33.8904 79.6697 34.271C79.8331 34.6516 79.8869 35.0322 79.8869 35.4678V35.7395C79.8869 35.8484 79.8869 35.9034 79.8331 36.0112H75.36C75.3819 36.1944 75.4479 36.3694 75.5525 36.5213C75.657 36.6731 75.7969 36.797 75.96 36.8824C76.2869 37.1002 76.7234 37.1541 77.16 37.1541ZM78.4149 34.8155C78.3937 34.6673 78.3383 34.5261 78.2529 34.4033C78.1676 34.2805 78.0547 34.1794 77.9234 34.1082C77.6441 33.9364 77.3242 33.8423 76.9966 33.8354C76.6697 33.8354 76.288 33.9443 76.0137 34.1082C75.7417 34.271 75.5234 34.5438 75.4686 34.8144L78.4149 34.8155ZM87.0891 34.2171C87.268 34.6291 87.3603 35.0735 87.3603 35.5228C87.3603 35.9721 87.268 36.4166 87.0891 36.8285C86.9231 37.2031 86.7024 37.5508 86.4343 37.8602C86.1514 38.1391 85.8177 38.361 85.4514 38.5136C85.0697 38.6775 84.688 38.7314 84.3063 38.7314C83.8697 38.7314 83.488 38.6775 83.1611 38.5136C82.8331 38.3508 82.6149 38.1881 82.5063 37.9703V41.125H81.0331V32.4758H82.5063V33.1293C82.6443 32.8681 82.8797 32.6724 83.1611 32.5847C83.488 32.422 83.8697 32.3669 84.3063 32.3669C84.688 32.3669 85.1246 32.422 85.4514 32.5847C85.7794 32.7475 86.1611 32.9653 86.4343 33.2382C86.7063 33.456 86.9257 33.8354 87.0891 34.2171ZM85.7246 36.1201C85.8343 35.9023 85.8343 35.6844 85.8343 35.4678C85.8343 35.25 85.7794 35.0322 85.7246 34.8144C85.616 34.5966 85.5074 34.4338 85.3429 34.3249C85.1957 34.1665 85.0066 34.0536 84.7977 33.9993C84.5794 33.9443 84.3611 33.8904 84.0891 33.8904C83.7063 33.8904 83.3794 33.9443 83.1063 34.1082C82.8331 34.271 82.6149 34.4338 82.5063 34.6516V36.284C82.616 36.5018 82.7794 36.7196 83.1063 36.8274C83.3794 36.9913 83.7063 37.0452 84.0891 37.0452C84.3611 37.0452 84.5794 36.9913 84.7977 36.9363C85.0067 36.8821 85.1958 36.7691 85.3429 36.6107C85.5063 36.5018 85.6709 36.3379 85.7246 36.1201ZM88.3977 33.4009C88.5148 33.2296 88.6629 33.0819 88.8343 32.9653C88.9977 32.8564 89.216 32.7475 89.3794 32.6386C89.5966 32.5297 89.816 32.4758 90.0343 32.4208C90.2514 32.3669 90.5257 32.3669 90.7429 32.3669C91.1246 32.3669 91.5063 32.422 91.8343 32.5309C92.1611 32.6386 92.4343 32.8025 92.6526 33.0204C92.8697 33.2382 93.0891 33.456 93.1977 33.7815C93.3074 34.1082 93.416 34.4349 93.416 34.8144V38.6225H91.9429V38.0792C91.7794 38.297 91.5611 38.4597 91.2343 38.5686C90.9175 38.6756 90.5856 38.7306 90.2514 38.7314C89.9246 38.7314 89.6526 38.6775 89.3794 38.5686C89.127 38.4749 88.8886 38.3468 88.6709 38.1881C88.4633 38.0292 88.2951 37.8244 88.1794 37.5897C88.073 37.3307 88.0175 37.0536 88.016 36.7735C88.016 36.4468 88.0697 36.1751 88.2331 35.9023C88.3429 35.6306 88.5611 35.4678 88.7794 35.305C88.9966 35.1411 89.2709 35.0322 89.5429 34.9233C89.816 34.8144 90.1429 34.8144 90.416 34.8144C90.7977 34.8144 91.1246 34.8694 91.3977 34.9233C91.6709 35.0322 91.8343 35.0872 91.8891 35.1961V35.0322C91.8891 34.7066 91.7794 34.3788 91.5611 34.1621C91.344 33.9443 91.016 33.8354 90.5246 33.8354C90.1429 33.8354 89.816 33.8904 89.488 34.0532C89.1611 34.2171 88.9429 34.3799 88.7794 34.5977L88.3977 33.4009ZM91.8891 36.3379C91.8343 36.229 91.6709 36.1201 91.4526 36.0662C91.2343 35.9573 91.016 35.9573 90.744 35.9573C90.3611 35.9573 90.0343 36.0112 89.8709 36.1201C89.6526 36.229 89.5966 36.3929 89.5966 36.6095C89.5966 36.8274 89.7063 36.9913 89.8709 37.1002C90.088 37.2091 90.3623 37.263 90.7429 37.263C91.016 37.263 91.2343 37.2091 91.4514 37.1002C91.6314 37.0186 91.7836 36.8859 91.8891 36.7184V36.339V36.3379ZM100.235 32.4758H101.709L102.635 38.5136H101.163L100.617 35.3039L99.2537 38.5136H98.0537L96.6354 35.3039L96.0903 38.5136H94.5623L95.4903 32.4758H96.8537L98.5451 36.3379L100.237 32.4747L100.235 32.4758ZM105.307 32.4758V36.1212L108.089 32.4758H109.563V38.5136H108.089V34.8683L105.362 38.5136H103.835V32.4758H105.307ZM119.054 37.5885C118.89 37.8614 118.563 38.133 118.182 38.3508C117.8 38.5686 117.309 38.6775 116.763 38.6775C116.327 38.6775 115.945 38.6225 115.563 38.4597C115.188 38.2946 114.838 38.0744 114.527 37.8063C114.254 37.5346 113.981 37.2079 113.818 36.7735C113.638 36.3614 113.545 35.9165 113.544 35.4666C113.544 35.0308 113.631 34.5994 113.8 34.1979C113.969 33.7963 114.216 33.4326 114.527 33.1281C114.799 32.8564 115.182 32.6386 115.563 32.4758C115.945 32.3131 116.327 32.258 116.763 32.258C117.309 32.258 117.8 32.3669 118.182 32.5847C118.563 32.8025 118.837 33.0204 119.054 33.3459L118.618 34.5977C118.454 34.4338 118.235 34.2171 117.963 34.1082C117.69 33.9443 117.363 33.8904 116.982 33.8904C116.435 33.8904 115.999 34.0532 115.672 34.326C115.345 34.5977 115.182 34.9783 115.182 35.4678C115.182 35.9573 115.345 36.339 115.672 36.6095C115.999 36.8824 116.435 37.0452 116.982 37.0452C117.363 37.0452 117.69 36.9913 118.018 36.8274C118.29 36.6646 118.509 36.5018 118.672 36.3379L119.054 37.5885ZM124.891 34.0532H122.982V38.5136H121.509V34.0532H119.654V32.4758H124.891V34.0532ZM125.763 33.4009C125.881 33.2298 126.029 33.0821 126.2 32.9653C126.363 32.8564 126.582 32.7475 126.745 32.6386C126.963 32.5297 127.182 32.4758 127.4 32.4208C127.618 32.3669 127.891 32.3669 128.11 32.3669C128.491 32.3669 128.873 32.422 129.2 32.5309C129.528 32.6386 129.8 32.8025 130.018 33.0204C130.237 33.2382 130.455 33.456 130.563 33.7815C130.673 34.1082 130.782 34.4349 130.782 34.8144V38.6225H129.31V38.0792C129.145 38.297 128.928 38.4597 128.6 38.5686C128.284 38.6755 127.952 38.7305 127.618 38.7314C127.291 38.7314 127.018 38.6775 126.745 38.5686C126.493 38.4748 126.254 38.3467 126.037 38.1881C125.829 38.029 125.661 37.8243 125.545 37.5897C125.439 37.3306 125.383 37.0535 125.382 36.7735C125.382 36.4468 125.437 36.1751 125.6 35.9023C125.709 35.6306 125.927 35.4678 126.145 35.305C126.363 35.1411 126.637 35.0322 126.909 34.9233C127.182 34.8144 127.51 34.8144 127.782 34.8144C128.163 34.8144 128.491 34.8694 128.763 34.9233C129.037 35.0322 129.2 35.0872 129.255 35.1961V35.0322C129.255 34.7066 129.145 34.3788 128.928 34.1621C128.71 33.9443 128.382 33.8354 127.891 33.8354C127.51 33.8354 127.182 33.8904 126.855 34.0532C126.527 34.2171 126.309 34.3799 126.145 34.5977L125.763 33.4009ZM129.255 36.3379C129.2 36.229 129.037 36.1201 128.818 36.0662C128.6 35.9573 128.382 35.9573 128.11 35.9573C127.727 35.9573 127.4 36.0112 127.237 36.1201C127.018 36.229 126.963 36.3929 126.963 36.6095C126.963 36.8274 127.073 36.9913 127.237 37.1002C127.455 37.2091 127.727 37.263 128.11 37.263C128.382 37.263 128.6 37.2091 128.818 37.1002C128.998 37.0183 129.15 36.8857 129.255 36.7184V36.339V36.3379ZM133.729 32.4758V34.6516H136.402V32.4758H137.875V38.5136H136.402V36.229H133.729V38.5136H132.257V32.4758H133.729ZM145.403 35.5217C145.403 35.9573 145.295 36.3929 145.13 36.7735C144.977 37.1527 144.734 37.4887 144.422 37.7524C144.149 38.0241 143.767 38.2419 143.385 38.4059C143.003 38.5686 142.567 38.6237 142.185 38.6237C141.749 38.6237 141.367 38.5686 140.985 38.4059C140.609 38.2407 140.26 38.0205 139.949 37.7524C139.675 37.4808 139.403 37.1541 139.239 36.7735C139.065 36.3787 138.973 35.953 138.967 35.5217C138.967 35.0861 139.075 34.6516 139.239 34.271C139.403 33.8904 139.621 33.5637 139.949 33.237C140.222 32.9653 140.603 32.7475 140.985 32.5836C141.367 32.422 141.803 32.3669 142.185 32.3669C142.622 32.3669 143.003 32.422 143.385 32.5847C143.767 32.7475 144.094 32.9653 144.422 33.2382C144.695 33.5098 144.967 33.8354 145.13 34.271C145.295 34.6516 145.403 35.0322 145.403 35.5217ZM140.603 34.8694C140.494 35.0872 140.494 35.305 140.494 35.5228C140.494 35.7406 140.549 35.9584 140.603 36.1751C140.712 36.3929 140.822 36.5557 140.985 36.6646C141.132 36.8234 141.321 36.9368 141.53 36.9913C141.749 37.0452 141.967 37.1002 142.185 37.1002C142.403 37.1002 142.622 37.0452 142.84 36.9913C143.049 36.9368 143.238 36.8234 143.385 36.6646C143.549 36.5018 143.658 36.3379 143.767 36.1751C143.877 35.9573 143.877 35.7395 143.877 35.5217C143.877 35.3039 143.822 35.0861 143.767 34.8694C143.658 34.6516 143.549 34.4888 143.385 34.3799C143.238 34.221 143.049 34.1076 142.84 34.0532C142.627 33.9905 142.407 33.954 142.185 33.9443C141.967 33.9443 141.749 33.9993 141.53 34.0532C141.321 34.1076 141.132 34.221 140.985 34.3799C140.822 34.4888 140.712 34.6516 140.603 34.8694ZM148.84 32.4758C149.168 32.4758 149.44 32.5297 149.713 32.5847C149.986 32.6386 150.203 32.7475 150.422 32.9103C150.64 33.0742 150.75 33.237 150.913 33.4548C151.022 33.6726 151.077 33.9443 151.077 34.216C151.077 34.4888 151.022 34.6516 150.968 34.8144C150.91 34.992 150.794 35.1452 150.64 35.25C150.858 35.4128 151.077 35.5767 151.186 35.7934C151.35 36.0112 151.405 36.284 151.405 36.6646C151.405 36.9363 151.35 37.2079 151.24 37.4257C151.131 37.6435 150.968 37.8613 150.75 38.0241C150.532 38.183 150.293 38.3111 150.04 38.4047C149.768 38.5136 149.495 38.5136 149.168 38.5136H146.549V32.4758H148.84ZM147.913 33.8904V34.9233H148.95C149.111 34.9277 149.267 34.8693 149.386 34.7605C149.495 34.6516 149.55 34.5427 149.55 34.4338C149.552 34.3623 149.538 34.2912 149.51 34.2255C149.481 34.1598 149.439 34.101 149.386 34.0532C149.267 33.9444 149.111 33.886 148.95 33.8904H147.913ZM147.913 36.0662V37.099H149.277C149.438 37.1034 149.594 37.0451 149.713 36.9363C149.766 36.8885 149.808 36.8297 149.837 36.764C149.865 36.6983 149.878 36.6272 149.877 36.5557C149.87 36.4131 149.812 36.2779 149.713 36.1751C149.603 36.0662 149.495 36.0112 149.277 36.0112H147.913V36.0662ZM156.858 32.4758V38.5136H155.385V36.7184H154.895L153.694 38.5136H151.949L153.312 36.5006C152.985 36.3379 152.712 36.065 152.494 35.7395C152.275 35.4128 152.222 35.0322 152.222 34.5977C152.222 34.271 152.275 33.9443 152.385 33.6726C152.494 33.4009 152.658 33.1831 152.877 33.0192C153.094 32.8564 153.312 32.6936 153.585 32.5836C153.858 32.4758 154.185 32.4208 154.512 32.4208H156.858V32.4758ZM154.349 33.9993C154.13 33.9993 153.967 34.0532 153.858 34.2171C153.749 34.3249 153.694 34.4888 153.694 34.7066C153.694 34.8694 153.749 35.0322 153.912 35.1422C154.022 35.25 154.24 35.305 154.403 35.305H155.44V34.0532H154.349V33.9993ZM163.022 34.0532H161.167V38.5136H159.694V34.0532H157.839V32.4758H163.022V34.0532ZM169.077 37.5885C168.913 37.8614 168.585 38.133 168.203 38.3508C167.822 38.5686 167.331 38.6775 166.785 38.6775C166.349 38.6775 165.967 38.6225 165.585 38.4597C165.209 38.2943 164.86 38.0741 164.549 37.8063C164.277 37.5346 164.003 37.2079 163.84 36.7735C163.66 36.3613 163.567 35.9164 163.567 35.4666C163.567 34.9783 163.677 34.5427 163.84 34.1621C164.003 33.7815 164.222 33.4548 164.549 33.1281C164.822 32.8564 165.203 32.6386 165.585 32.4758C165.967 32.3131 166.349 32.258 166.785 32.258C167.331 32.258 167.822 32.3669 168.203 32.5847C168.585 32.8025 168.858 33.0204 169.077 33.3459L168.64 34.5977C168.477 34.4338 168.258 34.2171 167.985 34.1082C167.713 33.9443 167.385 33.8904 167.003 33.8904C166.458 33.8904 166.022 34.0532 165.695 34.326C165.367 34.5977 165.203 34.9783 165.203 35.4678C165.203 35.9573 165.367 36.339 165.695 36.6095C166.022 36.8824 166.458 37.0452 167.003 37.0452C167.385 37.0452 167.713 36.9913 168.04 36.8274C168.313 36.6646 168.531 36.5018 168.695 36.3379L169.077 37.5885ZM174.589 32.4758V38.5136H173.115V36.7184H172.624L171.424 38.5136H169.679L171.042 36.5006C170.715 36.3379 170.387 36.065 170.224 35.7395C170.006 35.4128 169.951 35.0322 169.951 34.5977C169.951 34.271 170.006 33.9443 170.115 33.6726C170.214 33.4129 170.384 33.1865 170.606 33.0192C170.824 32.8564 171.042 32.6936 171.315 32.5836C171.587 32.4758 171.915 32.4208 172.242 32.4208H174.589V32.4758ZM172.079 33.9993C171.861 33.9993 171.697 34.0532 171.587 34.2171C171.479 34.3249 171.424 34.4888 171.424 34.7066C171.424 34.8694 171.479 35.0322 171.642 35.1422C171.752 35.25 171.969 35.305 172.134 35.305H173.17V34.0532H172.079V33.9993ZM56.4857 32.4758L58.9954 38.5136H57.1943L55.7771 34.9783L54.3577 38.5136H52.5577L55.0674 32.4758H56.4857Z" fill="white"/>
</g>
<defs>
<clipPath id="clip0_286_163">
<rect width="232" height="47" fill="white"/>
</clipPath>
</defs>
</svg>
